<svg xmlns="http://www.w3.org/2000/svg" width="300.000000pt" height="297.000000pt" viewBox="0 0 300.000000 297.000000" preserveAspectRatio="xMidYMid meet"><metadata>
Created by potrace 1.16, written by Peter Selinger 2001-2019
</metadata><g transform="translate(0.000000,297.000000) scale(0.100000,-0.100000)" fill="#000000" stroke="none"><path d="M2451 1799 c-192 -17 -378 -84 -507 -182 -161 -122 -277 -342 -320 -606 -9 -53 -18 -106 -20 -118 l-4 -23 -228 0 c-211 0 -702 -35 -702 -50 0 -3 64 -16 143 -28 274 -46 254 -40 266 -74 14 -40 8 -48 -42 -48 -23 0 -73 -3 -112 -7 l-70 -7 125 -21 125 -20 3 -31 3 -31 -108 -6 c-59 -4 -232 -12 -383 -19 -151 -7 -266 -14 -255 -15 65 -8 784 -33 958 -33 l207 0 -5 -22 c-11 -52 -75 -426 -75 -441 0 -16 23 -17 269 -17 l269 0 15 82 c8 46 28 154 43 241 l28 157 128 0 c145 0 170 8 213 64 75 98 87 244 25 306 -18 18 -32 20 -155 20 -101 0 -135 3 -135 13 0 6 9 61 21 121 32 173 69 255 145 329 59 57 127 78 274 84 154 6 170 14 170 80 0 125 -47 251 -105 284 -41 23 -94 28 -204 18z"></path></g></svg>